<svg width="24" height="24" viewBox="0 0 24 24" fill="none" xmlns="http://www.w3.org/2000/svg">
<rect width="24" height="24" rx="5" fill="black"/>
<path d="M12.5 7C13.8807 7 15 5.88071 15 4.5C15 3.11929 13.8807 2 12.5 2C11.1193 2 10 3.11929 10 4.5C10 5.88071 11.1193 7 12.5 7Z" stroke="white" stroke-width="1.5" stroke-linecap="round" stroke-linejoin="round"/>
<path d="M11 6L7 10" stroke="white" stroke-width="1.5" stroke-linecap="round" stroke-linejoin="round"/>
<path d="M5.5 14C6.88071 14 8 12.8807 8 11.5C8 10.1193 6.88071 9 5.5 9C4.11929 9 3 10.1193 3 11.5C3 12.8807 4.11929 14 5.5 14Z" stroke="white" stroke-width="1.5" stroke-linecap="round" stroke-linejoin="round"/>
<path d="M8 12H17" stroke="white" stroke-width="1.5" stroke-linecap="round" stroke-linejoin="round"/>
<path d="M19.5 14C20.8807 14 22 12.8807 22 11.5C22 10.1193 20.8807 9 19.5 9C18.1193 9 17 10.1193 17 11.5C17 12.8807 18.1193 14 19.5 14Z" stroke="white" stroke-width="1.5" stroke-linecap="round" stroke-linejoin="round"/>
<path d="M14 17L18 13" stroke="white" stroke-width="1.5" stroke-linecap="round" stroke-linejoin="round"/>
<path d="M12.5 21C13.8807 21 15 19.8807 15 18.5C15 17.1193 13.8807 16 12.5 16C11.1193 16 10 17.1193 10 18.5C10 19.8807 11.1193 21 12.5 21Z" stroke="white" stroke-width="1.5" stroke-linecap="round" stroke-linejoin="round"/>
</svg>
